<?xml version="1.0" encoding="utf-8"?>
<!-- Generator: Adobe Illustrator 12.0.1, SVG Export Plug-In . SVG Version: 6.00 Build 51448)  -->
<!DOCTYPE svg PUBLIC "-//W3C//DTD SVG 1.1//EN" "http://www.w3.org/Graphics/SVG/1.1/DTD/svg11.dtd" [
	<!ENTITY ns_svg "http://www.w3.org/2000/svg">
	<!ENTITY ns_xlink "http://www.w3.org/1999/xlink">
]>
<svg  version="1.1" id="Layer_2" xmlns="&ns_svg;" xmlns:xlink="&ns_xlink;" width="813.6" height="813.601"
	 viewBox="0 0 813.6 813.601" overflow="visible" enable-background="new 0 0 813.6 813.601" xml:space="preserve">
<path fill="#DEE6D2" d="M813.6,752.342c-0.001-2.584-0.474-5.357-1.512-8.332L633.54,231.833l-0.011,0.009
	c-3.535-10.158-7.347-11.492-12.767-11.584c-0.038,0-0.076,0.001-0.095,0c-0.355,0.015-12.155-0.193-19.624-7.662
	c-8.696-8.696-8.239-18.43-8.25-18.632c-0.424-7.029,0.924-9.487-11.976-13.92c-0.346-0.11-217.983-72.446-217.983-72.446
	c-0.02,0.002-0.04-0.018-0.059-0.017c-5.802-1.978-4.61-8.368,1.737-6.583c0.143,0.046,14.768,4.905,14.768,4.905
	c6.035,2.011,8.945-1.728,10.79-6.9l0.058,0.019l1.479-4.467c4.89-14.663,2.626-28.622-5.048-31.166L197.011,0.401
	c-1.107-0.367-2.266-0.477-3.454-0.352c-7.046,0.742-15.1,9.743-19.268,22.291l-1.571,4.716c-1.793,5.354-1.081,9.844,4.894,11.838
	l12.828,4.271c6.31,2.449,5.181,8.522-2.015,6.462L78.071,12.963c-5.614-1.861-11.787-3.122-17.767-3.1
	c-11.099,0.04-21.537,4.494-26.512,17.71c-0.009,0.01,0,0.021-0.009,0.029C10.871,92.279-0.371,160.113,0.009,227.861
	c0.857,152.594,60.677,304.752,178.916,419.42c115.035,111.562,263.905,166.83,412.463,166.315
	c65.033-0.226,130.006-11.142,192.055-32.705c0.545-0.189,1.098-0.37,1.653-0.57C798.439,775.577,813.606,766.996,813.6,752.342z
	 M737.403,646.312c-2.905,1.004-5.869,0.511-7.509-1.076c-0.468-0.456-0.831-1.017-1.052-1.646l-65.249-187.123
	c-0.976-2.815,1.281-6.152,5.025-7.455c2.915-1.015,5.861-0.502,7.499,1.086c0.479,0.465,0.841,1.005,1.063,1.637l65.239,187.131
	C743.403,641.672,741.148,645.009,737.403,646.312z"/>
</svg>
