<?xml version="1.0" encoding="utf-8"?>
<!-- Generator: Adobe Illustrator 12.0.1, SVG Export Plug-In . SVG Version: 6.00 Build 51448)  -->
<!DOCTYPE svg PUBLIC "-//W3C//DTD SVG 1.1//EN" "http://www.w3.org/Graphics/SVG/1.1/DTD/svg11.dtd" [
	<!ENTITY ns_svg "http://www.w3.org/2000/svg">
	<!ENTITY ns_xlink "http://www.w3.org/1999/xlink">
]>
<svg  version="1.1" id="Layer_2" xmlns="&ns_svg;" xmlns:xlink="&ns_xlink;" width="234" height="235.259"
	 viewBox="0 0 234 235.259" overflow="visible" enable-background="new 0 0 234 235.259" xml:space="preserve">
<path fill="#0054A6" d="M233.999,139.112c-0.129-12.069-8.78-21.107-18.841-21.482c10.236-0.382,19.012-9.729,18.84-22.112
	c-0.028-1.991-0.287-4.062-0.809-6.186c-3.796-15.313-18.33-21.878-29.107-16.719c10.381-5.965,13.177-21.645,2.766-33.431
	c-10.452-11.755-26.363-10.821-33.52-1.26c6.429-10.078,1.68-25.3-13.06-30.919c-14.772-5.564-28.427,2.674-30.288,14.497
	c0.901-10.913-8.37-21.129-21.827-21.491c-1.32-0.035-2.68,0.024-4.075,0.188C88.445,2.093,80.135,15.71,83.955,27.04
	c-4.658-10.989-19.903-15.692-32.861-6.76c-12.93,8.977-13.922,24.87-5.268,33.135c-9.231-7.588-24.904-4.715-32.263,9.219
	c-7.315,13.957-0.812,28.523,10.68,31.811C12.554,92.041,0.041,101.938,0,117.63c0.041,15.692,12.554,25.589,24.243,23.186
	c-11.491,3.287-17.995,17.854-10.68,31.811c7.359,13.934,23.032,16.807,32.263,9.219c-8.655,8.265-7.662,24.158,5.268,33.135
	c12.958,8.933,28.203,4.229,32.861-6.76c-3.819,11.33,4.49,24.947,20.124,26.843c1.952,0.228,3.836,0.253,5.637,0.1
	c12.606-1.076,21.131-10.918,20.265-21.403c1.861,11.823,15.516,20.062,30.288,14.497c14.74-5.619,19.489-20.841,13.06-30.919
	c7.156,9.562,23.067,10.495,33.52-1.26c10.411-11.786,7.615-27.466-2.766-33.431c10.777,5.159,25.311-1.405,29.107-16.719
	C233.766,143.579,234.022,141.296,233.999,139.112z"/>
</svg>
